<?xml version="1.0" encoding="utf-8"?>
<!-- Generator: Adobe Illustrator 19.2.0, SVG Export Plug-In . SVG Version: 6.00 Build 0)  -->
<svg version="1.1" id="Layer_1" xmlns="http://www.w3.org/2000/svg" xmlns:xlink="http://www.w3.org/1999/xlink" x="0px" y="0px"
	 viewBox="0 0 100 100" style="enable-background:new 0 0 100 100;" xml:space="preserve">
<style type="text/css">
	.st0{fill:#FFFFFF;}
	.st1{fill:#245963;}
</style>
<circle class="st0" cx="50" cy="50" r="46.2"/>
<path class="st1" d="M65,52.6c-1.9,0-3.5,0-5.7-0.1c-0.3,0-6,0.1-5.9,0.2c0.4,2.5-0.2,5.1-0.1,7.7c0,1.5,0.5,14.8,0.3,19.7
	l-11.1,0.1c0-4.2,0.2-8.5,0-14c0-1.1-0.1-13.1-0.2-13.7c0,0-4.9,0-7.2,0c0,0,0-4.4,0-5.9c0-1.5,0-2.9,0-4.4c0,0,5.7-0.3,7.4-0.5
	c0,0,0.2-5.6,0.4-7.4c0.3-2.1,0.3-4.2,1.5-6c2.2-3.3,4.4-6.3,8.5-7.2c1.5-0.3,11.7-2.3,12.1-0.7l-0.2,9.9c-2.8,0-6.1-0.3-8.9,1.8
	c-1.6,1.2-2,2.1-2.2,4.1c-0.1,1.1-0.1,5.7-0.1,5.7c1.5,0.2,3.7,0.1,5.3,0c1.8-0.1,6.5,0.3,6.5,0.3C65.1,45.3,65,52.3,65,52.6z"/>
</svg>
